<svg width="1200" height="260" viewBox="0 0 1200 260" xmlns="http://www.w3.org/2000/svg">
  <defs>
    <linearGradient id="grad" x1="0%" y1="0%" x2="100%" y2="100%">
      <stop offset="0%" stop-color="#1f77b4"/>
      <stop offset="100%" stop-color="#4f8ad8"/>
    </linearGradient>
    <filter id="shadow" x="-20%" y="-20%" width="140%" height="140%">
      <feDropShadow dx="0" dy="8" stdDeviation="16" flood-color="#0d1d3d" flood-opacity="0.25"/>
    </filter>
  </defs>
  <rect width="1200" height="260" rx="28" fill="url(#grad)" filter="url(#shadow)"/>
  <circle cx="980" cy="90" r="64" fill="#ff7f0e" opacity="0.95"/>
  <path d="M880 40 C 900 20, 960 20, 980 40 S 1040 80, 980 110" fill="none" stroke="#ffffff" stroke-width="12" stroke-linecap="round"/>
  <path d="M240 200 C 300 150, 420 150, 480 200 S 620 250, 700 200" fill="none" stroke="#ffffff" stroke-width="10" opacity="0.65"/>
  <path d="M520 160 C 560 140, 620 140, 660 160 S 740 200, 820 160" fill="none" stroke="#ffffff" stroke-width="8" opacity="0.45"/>
  <text x="60" y="90" font-family="Inter, sans-serif" font-size="44" font-weight="700" fill="#ffffff">Monitoring Progres Ngibar 3600</text>
  <text x="60" y="140" font-family="Inter, sans-serif" font-size="22" fill="#f0f5ff">Lacak usaha yang sudah mengisi Form dan lihat hasil matching dengan cepat.</text>
  <rect x="60" y="160" width="520" height="2" fill="#ffffff" opacity="0.35"/>
  <text x="60" y="200" font-family="Inter, sans-serif" font-size="18" fill="#dce7ff">Tingkatkan visibilitas proses, identifikasi duplikasi, dan tampilkan hasil secara visual.</text>
</svg>
